<?xml version="1.0" encoding="utf-8"?>
<!-- Designed by Vexels.com - 2019 All Rights Reserved - https://vexels.com/terms-and-conditions/  -->
<svg version="1.1" id="Layer_1" xmlns="http://www.w3.org/2000/svg" xmlns:xlink="http://www.w3.org/1999/xlink" x="0px" y="0px"
	 viewBox="0 0 1200 1200" enable-background="new 0 0 1200 1200" xml:space="preserve">
<g>
	<path fill="#F78BAC" d="M1134.099,244.405c-22.583-82.264,19.356-133.881-11.292-159.689
		c-30.647-25.808-83.877,46.778-196.789,91.942c-82.43,32.972-125.296,84.865-153.112,143.111
		C720.137,297.594,661.622,285.995,600,285.995c-61.622,0-120.137,11.598-172.906,33.774
		c-27.816-58.246-70.682-110.139-153.112-143.111C161.069,131.494,107.839,58.908,77.192,84.716
		C46.544,110.524,88.483,162.141,65.9,244.405c-22.582,82.264-30.647,225.824,41.939,325.832
		c25.829,35.587,52.883,53.188,79.274,59.078c-5.847,31.785-8.939,65.519-8.939,101.121c0,279.206,188.858,390.252,421.825,390.252
		s421.825-111.046,421.825-390.252c0-35.602-3.091-69.336-8.939-101.121c26.39-5.89,53.445-23.491,79.274-59.078
		C1164.747,470.229,1156.682,326.669,1134.099,244.405z"/>
	<g>
		<g>
			<path fill="#E86993" d="M373.467,347.143c-18.813-34.939-47.244-65.708-97.76-85.915C199.734,230.84,163.918,182,143.297,199.366
				c-20.621,17.365,7.597,52.095-7.598,107.447c-15.194,55.351-20.621,151.945,28.219,219.236
				c13.283,18.301,27.047,29.494,40.726,35.544C236.901,466.769,296.732,394.019,373.467,347.143z"/>
			<path fill="#E86993" d="M1064.301,306.812c-15.195-55.351,13.024-90.081-7.598-107.447
				c-20.621-17.365-56.437,31.474-132.409,61.863c-50.517,20.207-78.947,50.976-97.76,85.915
				c76.735,46.876,136.565,119.626,168.823,214.448c13.679-6.049,27.443-17.243,40.726-35.544
				C1084.922,458.757,1079.495,362.163,1064.301,306.812z"/>
		</g>
		<g>
			<path fill="#FFFFFF" d="M828.165,705.101c73.377-18.131,96.468-144.326,0-178.687
				C704.573,482.39,691.991,738.744,828.165,705.101z"/>
			<path fill="#1E1E1E" d="M820.254,674.159c48.838-11.923,64.202-94.905,0-117.506C738,527.702,729.624,696.282,820.254,674.159z"
				/>
		</g>
		<circle fill="#FFFFFF" cx="804.691" cy="580.515" r="12.12"/>
		<circle fill="#FFFFFF" cx="833.239" cy="601.651" r="16.429"/>
		<path fill="#1E1E1E" d="M792.178,467.161c32.867-5.682,65.129,13.459,87.76,35.68c9.332,9.163-6.461,21.881-15.671,12.84
			c-17.479-17.16-43.577-32.895-68.912-28.518C782.479,489.392,779.315,469.384,792.178,467.161z"/>
		<path fill="#1E1E1E" d="M393.676,450.826c-32.867-5.682-65.129,13.459-87.76,35.68c-9.332,9.163,6.461,21.881,15.671,12.84
			c17.479-17.16,43.577-32.895,68.912-28.518C403.375,473.057,406.539,453.049,393.676,450.826z"/>
		<path fill="#1E1E1E" d="M460.535,620.288c-2.996-28.127-17.959-54.019-44.32-66.041c-12.494-5.698-18.922,13.607-7.268,19.64
			c10.146,5.253,18.909,13.269,24.26,23.052c-11.658-5.291-24.593-7.816-37.935-8.185c-20.788-0.576-50.965,1.709-62.401,22.31
			c-3.772,6.795,2.428,17.072,10.677,12.632c7.265-3.911,13.517-8.254,21.713-10.138c9.048-2.079,18.598-2.259,27.835-1.843
			c17.434,0.786,35.345,5.011,48.112,17.649C449.063,637.138,461.734,631.546,460.535,620.288z"/>
		<path fill="#E86993" d="M757.274,831.822c0,70.958-70.414,117.59-157.274,117.59s-157.274-46.632-157.274-117.59
			S513.14,703.342,600,703.342S757.274,760.864,757.274,831.822z"/>
		<g>
			<ellipse fill="#1E1E1E" cx="659.83" cy="833.666" rx="31.309" ry="44.241"/>
			<ellipse fill="#1E1E1E" cx="540.17" cy="832.985" rx="31.309" ry="44.241"/>
		</g>
		<path fill="#1E1E1E" d="M287.402,867.949c-0.578-0.628-1.156-1.256-1.734-1.884c-0.472-0.513-1.304,0.234-0.811,0.688
			c0.632,0.582,1.264,1.164,1.896,1.746C287.143,868.859,287.783,868.363,287.402,867.949z"/>
		<path fill="#1E1E1E" d="M585.94,1020.908c-54.464-1.874-107.377-18.959-152.954-48.834c-22.175-14.535-42.414-31.82-60.242-51.446
			c-9.018-9.927-17.364-20.44-24.99-31.472c-4.48-6.482-8.515-13.355-12.865-19.975c13.759,2.031,26.898,8.442,40.563,7.742
			c7.609-0.39,10.206-10.874,5.763-15.966c-15.862-18.177-102.514-28.735-99.822,10.281c0.292,4.228,6.293,7.437,9.935,5.128
			c6.418-4.069,13.202-6.229,20.271-7.24c6.803,24.237,25.531,47.333,41.284,65.712c19.015,22.185,41.37,41.649,65.702,57.802
			c48.913,32.469,106.211,51.607,164.946,53.685C599.905,1046.904,602.37,1021.473,585.94,1020.908z"/>
	</g>
</g>
</svg>
